# xmcd
#
# Track frame offsets:
#	150
#	18214
#	36667
#	56602
#	69431
#	86525
#	103962
#	120401
#	135308
#	150184
#	165672
#	182346
#	204990
#	222890
#	254547
#	271519
#	286616
#	303101
#	319563
# Disc length: 4517 seconds
# Revision: 1
# Processed by: cddbd v1.5.2PL0 Copyright (c) Steve Scherf et al.
#
# Submitted via: libkcddb 0.31
#
DISCID=ef11a313
DTITLE=Neil Diamond - The Essential Neil Diamond CD1
DYEAR=2002
DGENRE=Pop
TTITLE0=You Are The Best Part Of Me
TTITLE1=Headed For The Future
TTITLE2=Heartlight
TTITLE3=Yesterday's Songs
TTITLE4=I've Been This Way Before
TTITLE5=September Morn
TTITLE6=Foreever In Blue Jeans
TTITLE7=Desirée
TTITLE8=You Don't Bring Me Flowers
TTITLE9=Beautiful Noise
TTITLE10=If You Know What I Mean
TTITLE11=Brother Love's Travelling Salvation Show (Live)
TTITLE12=Shilo (Live)
TTITLE13=Yes I Will/Lady Magdalene (Live)
TTITLE14=He Ain't Heavy... He's My Brother (Live)
TTITLE15=Captain Sunshine (Live)
TTITLE16=Love On The Rocks
TTITLE17=Hello Again
TTITLE18=America
EXTD=Disk One
EXTT0=
EXTT1=
EXTT2=
EXTT3=
EXTT4=
EXTT5=
EXTT6=
EXTT7=
EXTT8=
EXTT9=
EXTT10=
EXTT11=
EXTT12=
EXTT13=
EXTT14=
EXTT15=
EXTT16=
EXTT17=
EXTT18=
PLAYORDER=
